<svg width="130" height="130" viewBox="0 0 130 130" fill="none" xmlns="http://www.w3.org/2000/svg">
<path d="M65 2C99.7939 2 128 30.2061 128 65C128 99.7939 99.7939 128 65 128C30.2061 128 2 99.7939 2 65C2 30.2061 30.2061 2 65 2Z" stroke="url(#paint0_linear_91_527)" stroke-width="4"/>
<path d="M29.7704 61.3363H59.3704V66.3763H29.7704V61.3363ZM30.4104 87.1763H64.0904V92.2963H24.4904V36.2963H62.8904V41.4163H30.4104V87.1763ZM69.2341 92.2963L86.9941 69.2563L86.9141 72.0563L70.0341 50.2963H76.4341L90.2741 68.2963L87.8741 68.2163L101.714 50.2963H107.954L90.9141 72.2963L90.9941 69.2563L108.914 92.2963H102.434L87.7941 73.0963L90.0341 73.4163L75.6341 92.2963H69.2341Z" fill="url(#paint1_linear_91_527)"/>
<defs>
<linearGradient id="paint0_linear_91_527" x1="65" y1="0" x2="65" y2="130" gradientUnits="userSpaceOnUse">
<stop stop-color="#FD7173"/>
<stop offset="1" stop-color="#F25053"/>
</linearGradient>
<linearGradient id="paint1_linear_91_527" x1="64" y1="14.2963" x2="114.235" y2="107.079" gradientUnits="userSpaceOnUse">
<stop stop-color="#FF7274"/>
<stop offset="1" stop-color="#F34447"/>
</linearGradient>
</defs>
</svg>
