<svg width="130" height="130" viewBox="0 0 130 130" fill="none" xmlns="http://www.w3.org/2000/svg">
<path d="M65 2C99.7939 2 128 30.2061 128 65C128 99.7939 99.7939 128 65 128C30.2061 128 2 99.7939 2 65C2 30.2061 30.2061 2 65 2Z" stroke="url(#paint0_linear_91_526)" stroke-width="4"/>
<circle cx="64.9567" cy="23.5786" r="1.91181" fill="white"/>
<circle cx="62.4411" cy="36.5587" r="1.91181" fill="white"/>
<circle cx="68.7802" cy="38.6717" r="1.91181" fill="white"/>
<circle cx="62.4411" cy="43.3004" r="1.91181" fill="white"/>
<ellipse cx="59.3723" cy="63.6259" rx="1.96212" ry="1.91181" fill="white"/>
<circle cx="63.4475" cy="58.796" r="1.91181" fill="white"/>
<circle cx="65.1581" cy="65.5377" r="1.91181" fill="white"/>
<circle cx="71.8996" cy="65.5377" r="1.91181" fill="white"/>
<ellipse cx="77.7861" cy="72.2792" rx="1.96212" ry="1.91181" fill="white"/>
<ellipse cx="68.5288" cy="71.273" rx="1.96212" ry="1.91181" fill="white"/>
<circle cx="61.7368" cy="71.273" r="1.91181" fill="white"/>
<circle cx="54.9953" cy="71.273" r="1.91181" fill="white"/>
<ellipse cx="47.3481" cy="79.8762" rx="1.91181" ry="1.96212" fill="white"/>
<path d="M87.1941 90.2905C87.1941 89.2346 88.05 88.3787 89.1059 88.3787H104.4C105.456 88.3787 106.312 89.2346 106.312 90.2905C106.312 91.3463 105.456 92.2023 104.4 92.2023H89.1059C88.05 92.2023 87.1941 91.3463 87.1941 90.2905Z" fill="white"/>
<path d="M78.7417 90.2905C78.7417 89.2346 79.5976 88.3787 80.6535 88.3787H81.9616C83.0175 88.3787 83.8734 89.2346 83.8734 90.2905C83.8734 91.3463 83.0175 92.2023 81.9616 92.2023H80.6535C79.5976 92.2023 78.7417 91.3463 78.7417 90.2905Z" fill="white"/>
<path d="M23.3999 90.2905C23.3999 89.2346 24.2558 88.3787 25.3117 88.3787H72.4026C73.4585 88.3787 74.3144 89.2346 74.3144 90.2905C74.3144 91.3463 73.4585 92.2023 72.4026 92.2023H25.3117C24.2558 92.2023 23.3999 91.3463 23.3999 90.2905Z" fill="white"/>
<path d="M27.9314 91.0655C26.9688 90.4136 26.7844 89.0708 27.5356 88.1835L57.9349 52.2741C59.82 50.0473 62.6491 48.8459 65.5605 49.0357C68.0651 49.1642 70.406 50.3194 72.0316 52.2292L104.048 89.8448C101.973 90.8484 99.4829 90.3258 97.9866 88.5728L69.0469 54.6696C68.1706 53.6429 66.9088 53.0242 65.5605 52.96C63.8076 52.7096 62.0492 53.379 60.9067 54.7318L30.5214 90.7083C29.8764 91.472 28.7591 91.6261 27.9314 91.0655Z" fill="white"/>
<defs>
<linearGradient id="paint0_linear_91_526" x1="65" y1="0" x2="65" y2="130" gradientUnits="userSpaceOnUse">
<stop stop-color="white"/>
<stop offset="1" stop-color="white"/>
</linearGradient>
</defs>
</svg>
